# xmcd
#
# Track frame offsets: 
#        150
#        22865
#        41945
#        53355
#        65530
#        76735
#        91832
#        116647
#        129255
#        144207
#        156425
#        184860
#        202467
#        217147
#        238602
#        251780
#        278322
#        297410
#        307805
#        318400
#
# Disc length: 4538 seconds
#
# Revision: 3
# Processed by: cddbd v1.5.2PL0 Copyright (c) Steve Scherf et al.
# Submitted via: ExactAudioCopyFreeDBPlugin 1.0
#
DISCID=1c11b814
DTITLE=Various Artist - Martin Scorsese Presents The Blues:   Red, Wh
DTITLE=ite and Blues (A Film By Mike Figgis)
DYEAR=2003
DGENRE=Blues
TTITLE0=Tom Jones and Jeff Beck - Goin' Down Slow
TTITLE1=Louis Armstrong and His All Stars - Back O' Town Blues (Live)
TTITLE2=Dixie Four - St. Louis Man
TTITLE3=Big Bill Broonzy - Black, Brown, And White Blues
TTITLE4=Sister Rosetta Tharpe and Marie Knight - Up Above My Head I Hear
TTITLE4=Music In The Air
TTITLE5=The Lonnie Donegan Skiffle Group - Rock Island Line
TTITLE6=Lulu and Jeff Beck - Cry Me A River
TTITLE7=Miles Davis - Generique
TTITLE8=Tom Jones and Jeff Beck - Love Letters
TTITLE9=Humphrey Lyttelton - Bad Penny Blues
TTITLE10=Little Joe Cook (aka Chris Farlowe) - Stormy Monday Blues Pts
TTITLE10=1 and 2
TTITLE11=Tom Jones and Jeff Beck - Hard Times
TTITLE12=Ray Charles - Tell The Truth (Live)
TTITLE13=Spencer Davis Group - Hey Darling
TTITLE14=Fleetwood Mac - Shake Your Money Maker
TTITLE15=John Mayall's Bluesbreakers and Eric Clapton - Have You Heard
TTITLE16=Cream - Crossroads (Live)
TTITLE17=Jeff Beck - Rollin' And Tumblin'
TTITLE18=Tom Jones - Lawdy Miss Clawdy
TTITLE19=Lulu and Jeff Beck - Drown In My Own Tears
EXTD=
EXTT0=
EXTT1=
EXTT2=
EXTT3=
EXTT4=
EXTT5=
EXTT6=
EXTT7=
EXTT8=
EXTT9=
EXTT10=
EXTT11=
EXTT12=
EXTT13=
EXTT14=
EXTT15=
EXTT16=
EXTT17=
EXTT18=
EXTT19=
PLAYORDER=
